<?xml version="1.0" encoding="UTF-8" standalone="no"?>

<svg
   version="1.1"
   id="svg2"
   width="1544"
   height="490"
   viewBox="0 0 1544 490"
   xmlns="http://www.w3.org/2000/svg"
   xmlns:svg="http://www.w3.org/2000/svg">
  <g
     id="g8"
     transform="matrix(1.3333333,0,0,-1.3333333,0,490)">
    <g
       id="g10"
       transform="scale(0.1)">
      <path
         d="M 4050.87,1129.18 H 867.816 c -6.05,0 -10.957,-4.91 -10.957,-10.96 V 824.531 c 0,-6.051 4.907,-10.961 10.957,-10.961 H 4050.87 c 6.05,0 10.96,4.91 10.96,10.961 v 293.689 c 0,6.05 -4.91,10.96 -10.96,10.96"
         style="fill:#f46769;fill-opacity:1;fill-rule:nonzero;stroke:none"
         id="path12" />
      <path
         d="M 10712.2,1129.18 H 5480.12 c -6.05,0 -10.95,-4.91 -10.95,-10.96 V 824.531 c 0,-6.051 4.9,-10.961 10.95,-10.961 h 5232.08 c 6,0 10.9,4.91 10.9,10.961 v 293.689 c 0,6.05 -4.9,10.96 -10.9,10.96"
         style="fill:#f46769;fill-opacity:1;fill-rule:nonzero;stroke:none"
         id="path14" />
      <path
         d="m 1150.12,2826.47 c 0,22.07 -17.89,39.96 -39.96,39.96 H 896.82 c -22.07,0 -39.961,-17.89 -39.961,-39.96 V 1440.06 c 0,-22.07 17.891,-39.96 39.961,-39.96 h 213.34 c 22.07,0 39.96,17.89 39.96,39.96 v 1386.41"
         style="fill:#f14b4e;fill-opacity:1;fill-rule:nonzero;stroke:none"
         id="path16" />
      <path
         d="m 1776.61,1714.31 c -22.06,0 -39.95,17.9 -39.95,39.96 v 192.4 c 0,22.07 17.89,39.96 39.95,39.96 h 506.62 c 22.07,0 39.96,17.89 39.96,39.96 v 213.35 c 0,22.07 -17.89,39.96 -39.96,39.96 h -799.88 c -22.07,0 -39.96,-17.89 -39.96,-39.96 v -799.88 c 0,-22.07 17.89,-39.96 39.96,-39.96 h 799.88 c 22.07,0 39.96,17.89 39.96,39.96 v 234.3 c 0,22.06 -17.89,39.95 -39.96,39.95 h -506.62"
         style="fill:#f24c97;fill-opacity:1;fill-rule:nonzero;stroke:none"
         id="path18" />
      <path
         d="m 3808.52,2573.16 h 213.35 c 22.07,0 39.96,17.89 39.96,39.96 v 213.35 c 0,22.07 -17.89,39.96 -39.96,39.96 h -213.35 c -22.06,0 -39.96,-17.89 -39.96,-39.96 v -213.35 c 0,-22.07 17.9,-39.96 39.96,-39.96"
         style="fill:#6c8ed1;fill-opacity:1;fill-rule:nonzero;stroke:none"
         id="path20" />
      <path
         d="m 4061.83,2239.94 c 0,22.07 -17.89,39.96 -39.96,39.96 h -213.35 c -22.06,0 -39.96,-17.89 -39.96,-39.96 v -799.88 c 0,-22.07 17.9,-39.96 39.96,-39.96 h 213.35 c 22.07,0 39.96,17.89 39.96,39.96 v 799.88"
         style="fill:#6c8ed1;fill-opacity:1;fill-rule:nonzero;stroke:none"
         id="path22" />
      <path
         d="m 3475.3,2239.94 c 0,22.07 -17.89,39.96 -39.96,39.96 h -485.66 c -22.07,0 -39.96,17.89 -39.96,39.96 v 506.61 c 0,22.07 -17.89,39.96 -39.96,39.96 h -234.3 c -22.07,0 -39.96,-17.89 -39.96,-39.96 V 1440.06 c 0,-22.07 17.89,-39.96 39.96,-39.96 h 234.3 c 22.07,0 39.96,17.89 39.96,39.96 v 506.61 c 0,22.07 17.89,39.96 39.96,39.96 h 192.39 c 22.07,0 39.96,-17.89 39.96,-39.96 v -506.61 c 0,-22.07 17.89,-39.96 39.96,-39.96 h 213.35 c 22.07,0 39.96,17.89 39.96,39.96 v 799.88"
         style="fill:#a47ec6;fill-opacity:1;fill-rule:nonzero;stroke:none"
         id="path24" />
      <path
         d="m 4880.72,1714.31 h -192.4 c -22.07,0 -39.96,17.9 -39.96,39.96 v 192.4 c 0,22.07 17.89,39.96 39.96,39.96 h 192.4 c 22.07,0 39.96,-17.89 39.96,-39.96 v -192.4 c 0,-22.06 -17.89,-39.96 -39.96,-39.96 z m 293.26,-900.74 c 22.07,0 39.96,17.891 39.96,39.961 l 1.68,1380.369 c 0.15,25.36 -20.37,46 -45.73,46 h -797.57 c -21.08,0 -38.17,-17.09 -38.17,-38.18 v -801.66 c 0,-22.07 17.89,-39.96 39.96,-39.96 h 506.61 c 22.07,0 39.96,-17.89 39.96,-39.96 v -192.4 c 0,-22.07 -17.89,-39.96 -39.96,-39.96 h -506.61 c -22.07,0 -39.96,-17.89 -39.96,-39.96 V 853.531 c 0,-22.07 17.89,-39.961 39.96,-39.961 h 799.87"
         style="fill:#5fb2e6;fill-opacity:1;fill-rule:nonzero;stroke:none"
         id="path26" />
      <path
         d="m 6032.83,1714.31 h -213.34 c -22.07,0 -39.96,17.9 -39.96,39.96 v 192.4 c 0,22.07 17.89,39.96 39.96,39.96 h 213.34 c 22.07,0 39.96,-17.89 39.96,-39.96 v -192.4 c 0,-22.06 -17.89,-39.96 -39.96,-39.96 z m -546.57,-274.25 c 0,-22.07 17.89,-39.96 39.96,-39.96 h 799.88 c 22.07,0 39.96,17.89 39.96,39.96 v 799.88 c 0,22.07 -17.89,39.96 -39.96,39.96 h -799.88 c -22.07,0 -39.96,-17.89 -39.96,-39.96 v -799.88"
         style="fill:#7ccc3b;fill-opacity:1;fill-rule:nonzero;stroke:none"
         id="path28" />
      <path
         d="m 7224.9,1754.27 c 0,-22.06 -17.89,-39.96 -39.95,-39.96 h -506.62 c -22.07,0 -39.96,-17.89 -39.96,-39.95 v -234.3 c 0,-22.07 17.89,-39.96 39.96,-39.96 h 799.88 c 22.07,0 39.96,17.89 39.96,39.96 v 1386.41 c 0,22.07 -17.89,39.96 -39.96,39.96 h -213.35 c -22.06,0 -39.96,-17.89 -39.96,-39.96 v -1072.2"
         style="fill:#a0cf2c;fill-opacity:1;fill-rule:nonzero;stroke:none"
         id="path30" />
      <path
         d="m 8144.66,1986.63 h 213.35 c 22.07,0 39.96,-17.89 39.96,-39.96 v -192.4 c 0,-22.06 -17.89,-39.96 -39.96,-39.96 h -213.35 c -22.07,0 -39.96,17.9 -39.96,39.96 v 192.4 c 0,22.07 17.89,39.96 39.96,39.96 z m 546.57,253.31 c 0,22.07 -17.89,39.96 -39.96,39.96 h -799.88 c -22.06,0 -39.96,-17.89 -39.96,-39.96 v -799.88 c 0,-22.07 17.9,-39.96 39.96,-39.96 h 1093.15 c 22.07,0 39.96,17.89 39.96,39.96 v 234.3 c 0,22.06 -17.89,39.95 -39.96,39.95 h -213.35 c -22.07,0 -39.96,17.9 -39.96,39.96 v 485.67"
         style="fill:#e4bd24;fill-opacity:1;fill-rule:nonzero;stroke:none"
         id="path32" />
      <path
         d="m 10723.1,2239.94 c 0,22.07 -17.9,39.96 -39.9,39.96 H 9024.46 c -22.07,0 -39.96,-17.89 -39.96,-39.96 v -213.35 c 0,-22.07 17.89,-39.96 39.96,-39.96 h 192.39 c 22.07,0 39.96,-17.89 39.96,-39.96 v -506.61 c 0,-22.07 17.89,-39.96 39.96,-39.96 h 213.35 c 22.07,0 39.96,17.89 39.96,39.96 v 506.61 c 0,22.07 17.89,39.96 39.96,39.96 h 213.34 c 22.07,0 39.96,-17.89 39.96,-39.96 v -506.61 c 0,-22.07 17.89,-39.96 39.96,-39.96 h 213.3 c 22.1,0 40,17.89 40,39.96 v 506.61 c 0,22.07 17.9,39.96 40,39.96 h 213.3 c 22.1,0 40,-17.89 40,-39.96 v -506.61 c 0,-22.07 17.9,-39.96 39.9,-39.96 h 213.4 c 22,0 39.9,17.89 39.9,39.96 v 799.88"
         style="fill:#f7973f;fill-opacity:1;fill-rule:nonzero;stroke:none"
         id="path34" />
    </g>
  </g>
</svg>
